<?xml version="1.0" encoding="UTF-8" standalone="no"?>
<!DOCTYPE svg PUBLIC "-//W3C//DTD SVG 1.1//EN"
 "http://www.w3.org/Graphics/SVG/1.1/DTD/svg11.dtd">
<!-- Generated by graphviz version 2.40.1 (20161225.0304)
 -->
<!-- Title: Tree Pages: 1 -->
<svg width="749pt" height="671pt"
 viewBox="0.00 0.00 749.00 671.00" xmlns="http://www.w3.org/2000/svg" xmlns:xlink="http://www.w3.org/1999/xlink">
<g id="graph0" class="graph" transform="scale(1 1) rotate(0) translate(4 667)">
<title>Tree</title>
<polygon fill="#ffffff" stroke="transparent" points="-4,4 -4,-667 745,-667 745,4 -4,4"/>
<!-- 0 -->
<g id="node1" class="node">
<title>0</title>
<polygon fill="#fffdfd" stroke="#000000" points="267,-663 118,-663 118,-580 267,-580 267,-663"/>
<text text-anchor="middle" x="192.5" y="-647.8" font-family="Times,serif" font-size="14.00" fill="#000000">petal width (cm) &lt;= 0.8</text>
<text text-anchor="middle" x="192.5" y="-632.8" font-family="Times,serif" font-size="14.00" fill="#000000">gini = 0.667</text>
<text text-anchor="middle" x="192.5" y="-617.8" font-family="Times,serif" font-size="14.00" fill="#000000">samples = 120</text>
<text text-anchor="middle" x="192.5" y="-602.8" font-family="Times,serif" font-size="14.00" fill="#000000">value = [41, 40, 39]</text>
<text text-anchor="middle" x="192.5" y="-587.8" font-family="Times,serif" font-size="14.00" fill="#000000">class = setosa</text>
</g>
<!-- 1 -->
<g id="node2" class="node">
<title>1</title>
<polygon fill="#e58139" stroke="#000000" points="173,-536.5 60,-536.5 60,-468.5 173,-468.5 173,-536.5"/>
<text text-anchor="middle" x="116.5" y="-521.3" font-family="Times,serif" font-size="14.00" fill="#000000">gini = 0.0</text>
<text text-anchor="middle" x="116.5" y="-506.3" font-family="Times,serif" font-size="14.00" fill="#000000">samples = 41</text>
<text text-anchor="middle" x="116.5" y="-491.3" font-family="Times,serif" font-size="14.00" fill="#000000">value = [41, 0, 0]</text>
<text text-anchor="middle" x="116.5" y="-476.3" font-family="Times,serif" font-size="14.00" fill="#000000">class = setosa</text>
</g>
<!-- 0&#45;&gt;1 -->
<g id="edge1" class="edge">
<title>0&#45;&gt;1</title>
<path fill="none" stroke="#000000" d="M165.9189,-579.8796C158.826,-568.7735 151.1479,-556.7513 144.0063,-545.5691"/>
<polygon fill="#000000" stroke="#000000" points="146.7477,-543.3589 138.4154,-536.8149 140.8482,-547.1267 146.7477,-543.3589"/>
<text text-anchor="middle" x="133.0319" y="-557.5284" font-family="Times,serif" font-size="14.00" fill="#000000">True</text>
</g>
<!-- 2 -->
<g id="node3" class="node">
<title>2</title>
<polygon fill="#fafefc" stroke="#000000" points="347.5,-544 191.5,-544 191.5,-461 347.5,-461 347.5,-544"/>
<text text-anchor="middle" x="269.5" y="-528.8" font-family="Times,serif" font-size="14.00" fill="#000000">petal width (cm) &lt;= 1.55</text>
<text text-anchor="middle" x="269.5" y="-513.8" font-family="Times,serif" font-size="14.00" fill="#000000">gini = 0.5</text>
<text text-anchor="middle" x="269.5" y="-498.8" font-family="Times,serif" font-size="14.00" fill="#000000">samples = 79</text>
<text text-anchor="middle" x="269.5" y="-483.8" font-family="Times,serif" font-size="14.00" fill="#000000">value = [0, 40, 39]</text>
<text text-anchor="middle" x="269.5" y="-468.8" font-family="Times,serif" font-size="14.00" fill="#000000">class = versicolor</text>
</g>
<!-- 0&#45;&gt;2 -->
<g id="edge2" class="edge">
<title>0&#45;&gt;2</title>
<path fill="none" stroke="#000000" d="M219.4309,-579.8796C225.0837,-571.1434 231.1033,-561.8404 236.9366,-552.8253"/>
<polygon fill="#000000" stroke="#000000" points="239.9601,-554.5952 242.4542,-544.2981 234.0831,-550.7924 239.9601,-554.5952"/>
<text text-anchor="middle" x="247.6924" y="-565.0431" font-family="Times,serif" font-size="14.00" fill="#000000">False</text>
</g>
<!-- 3 -->
<g id="node4" class="node">
<title>3</title>
<polygon fill="#3ee684" stroke="#000000" points="261,-425 102,-425 102,-342 261,-342 261,-425"/>
<text text-anchor="middle" x="181.5" y="-409.8" font-family="Times,serif" font-size="14.00" fill="#000000">petal length (cm) &lt;= 5.25</text>
<text text-anchor="middle" x="181.5" y="-394.8" font-family="Times,serif" font-size="14.00" fill="#000000">gini = 0.051</text>
<text text-anchor="middle" x="181.5" y="-379.8" font-family="Times,serif" font-size="14.00" fill="#000000">samples = 38</text>
<text text-anchor="middle" x="181.5" y="-364.8" font-family="Times,serif" font-size="14.00" fill="#000000">value = [0, 37, 1]</text>
<text text-anchor="middle" x="181.5" y="-349.8" font-family="Times,serif" font-size="14.00" fill="#000000">class = versicolor</text>
</g>
<!-- 2&#45;&gt;3 -->
<g id="edge3" class="edge">
<title>2&#45;&gt;3</title>
<path fill="none" stroke="#000000" d="M238.7219,-460.8796C232.1949,-452.0534 225.2401,-442.6485 218.5092,-433.5466"/>
<polygon fill="#000000" stroke="#000000" points="221.1695,-431.2574 212.4095,-425.2981 215.5412,-435.4195 221.1695,-431.2574"/>
</g>
<!-- 6 -->
<g id="node7" class="node">
<title>6</title>
<polygon fill="#8b49e7" stroke="#000000" points="435.5,-425 279.5,-425 279.5,-342 435.5,-342 435.5,-425"/>
<text text-anchor="middle" x="357.5" y="-409.8" font-family="Times,serif" font-size="14.00" fill="#000000">petal width (cm) &lt;= 1.75</text>
<text text-anchor="middle" x="357.5" y="-394.8" font-family="Times,serif" font-size="14.00" fill="#000000">gini = 0.136</text>
<text text-anchor="middle" x="357.5" y="-379.8" font-family="Times,serif" font-size="14.00" fill="#000000">samples = 41</text>
<text text-anchor="middle" x="357.5" y="-364.8" font-family="Times,serif" font-size="14.00" fill="#000000">value = [0, 3, 38]</text>
<text text-anchor="middle" x="357.5" y="-349.8" font-family="Times,serif" font-size="14.00" fill="#000000">class = virginica</text>
</g>
<!-- 2&#45;&gt;6 -->
<g id="edge6" class="edge">
<title>2&#45;&gt;6</title>
<path fill="none" stroke="#000000" d="M300.2781,-460.8796C306.8051,-452.0534 313.7599,-442.6485 320.4908,-433.5466"/>
<polygon fill="#000000" stroke="#000000" points="323.4588,-435.4195 326.5905,-425.2981 317.8305,-431.2574 323.4588,-435.4195"/>
</g>
<!-- 4 -->
<g id="node5" class="node">
<title>4</title>
<polygon fill="#39e581" stroke="#000000" points="115,-298.5 0,-298.5 0,-230.5 115,-230.5 115,-298.5"/>
<text text-anchor="middle" x="57.5" y="-283.3" font-family="Times,serif" font-size="14.00" fill="#000000">gini = 0.0</text>
<text text-anchor="middle" x="57.5" y="-268.3" font-family="Times,serif" font-size="14.00" fill="#000000">samples = 37</text>
<text text-anchor="middle" x="57.5" y="-253.3" font-family="Times,serif" font-size="14.00" fill="#000000">value = [0, 37, 0]</text>
<text text-anchor="middle" x="57.5" y="-238.3" font-family="Times,serif" font-size="14.00" fill="#000000">class = versicolor</text>
</g>
<!-- 3&#45;&gt;4 -->
<g id="edge4" class="edge">
<title>3&#45;&gt;4</title>
<path fill="none" stroke="#000000" d="M138.1308,-341.8796C125.9852,-330.2237 112.7881,-317.5587 100.6549,-305.9148"/>
<polygon fill="#000000" stroke="#000000" points="102.8953,-303.2138 93.2567,-298.8149 98.0484,-308.2643 102.8953,-303.2138"/>
</g>
<!-- 5 -->
<g id="node6" class="node">
<title>5</title>
<polygon fill="#8139e5" stroke="#000000" points="241.5,-298.5 133.5,-298.5 133.5,-230.5 241.5,-230.5 241.5,-298.5"/>
<text text-anchor="middle" x="187.5" y="-283.3" font-family="Times,serif" font-size="14.00" fill="#000000">gini = 0.0</text>
<text text-anchor="middle" x="187.5" y="-268.3" font-family="Times,serif" font-size="14.00" fill="#000000">samples = 1</text>
<text text-anchor="middle" x="187.5" y="-253.3" font-family="Times,serif" font-size="14.00" fill="#000000">value = [0, 0, 1]</text>
<text text-anchor="middle" x="187.5" y="-238.3" font-family="Times,serif" font-size="14.00" fill="#000000">class = virginica</text>
</g>
<!-- 3&#45;&gt;5 -->
<g id="edge5" class="edge">
<title>3&#45;&gt;5</title>
<path fill="none" stroke="#000000" d="M183.5985,-341.8796C184.1363,-331.2134 184.7167,-319.7021 185.2613,-308.9015"/>
<polygon fill="#000000" stroke="#000000" points="188.7617,-308.9785 185.7698,-298.8149 181.7706,-308.626 188.7617,-308.9785"/>
</g>
<!-- 7 -->
<g id="node8" class="node">
<title>7</title>
<polygon fill="#ffffff" stroke="#000000" points="432,-306 271,-306 271,-223 432,-223 432,-306"/>
<text text-anchor="middle" x="351.5" y="-290.8" font-family="Times,serif" font-size="14.00" fill="#000000">sepal length (cm) &lt;= 5.45</text>
<text text-anchor="middle" x="351.5" y="-275.8" font-family="Times,serif" font-size="14.00" fill="#000000">gini = 0.5</text>
<text text-anchor="middle" x="351.5" y="-260.8" font-family="Times,serif" font-size="14.00" fill="#000000">samples = 4</text>
<text text-anchor="middle" x="351.5" y="-245.8" font-family="Times,serif" font-size="14.00" fill="#000000">value = [0, 2, 2]</text>
<text text-anchor="middle" x="351.5" y="-230.8" font-family="Times,serif" font-size="14.00" fill="#000000">class = versicolor</text>
</g>
<!-- 6&#45;&gt;7 -->
<g id="edge7" class="edge">
<title>6&#45;&gt;7</title>
<path fill="none" stroke="#000000" d="M355.4015,-341.8796C354.9883,-333.6838 354.5499,-324.9891 354.1219,-316.5013"/>
<polygon fill="#000000" stroke="#000000" points="357.6067,-316.1091 353.6075,-306.2981 350.6156,-316.4617 357.6067,-316.1091"/>
</g>
<!-- 12 -->
<g id="node13" class="node">
<title>12</title>
<polygon fill="#843ee6" stroke="#000000" points="609,-306 450,-306 450,-223 609,-223 609,-306"/>
<text text-anchor="middle" x="529.5" y="-290.8" font-family="Times,serif" font-size="14.00" fill="#000000">petal length (cm) &lt;= 4.85</text>
<text text-anchor="middle" x="529.5" y="-275.8" font-family="Times,serif" font-size="14.00" fill="#000000">gini = 0.053</text>
<text text-anchor="middle" x="529.5" y="-260.8" font-family="Times,serif" font-size="14.00" fill="#000000">samples = 37</text>
<text text-anchor="middle" x="529.5" y="-245.8" font-family="Times,serif" font-size="14.00" fill="#000000">value = [0, 1, 36]</text>
<text text-anchor="middle" x="529.5" y="-230.8" font-family="Times,serif" font-size="14.00" fill="#000000">class = virginica</text>
</g>
<!-- 6&#45;&gt;12 -->
<g id="edge12" class="edge">
<title>6&#45;&gt;12</title>
<path fill="none" stroke="#000000" d="M417.6573,-341.8796C431.667,-332.1868 446.6854,-321.7961 461.025,-311.8752"/>
<polygon fill="#000000" stroke="#000000" points="463.1444,-314.6649 469.3767,-306.0969 459.1617,-308.9083 463.1444,-314.6649"/>
</g>
<!-- 8 -->
<g id="node9" class="node">
<title>8</title>
<polygon fill="#8139e5" stroke="#000000" points="253.5,-179.5 145.5,-179.5 145.5,-111.5 253.5,-111.5 253.5,-179.5"/>
<text text-anchor="middle" x="199.5" y="-164.3" font-family="Times,serif" font-size="14.00" fill="#000000">gini = 0.0</text>
<text text-anchor="middle" x="199.5" y="-149.3" font-family="Times,serif" font-size="14.00" fill="#000000">samples = 1</text>
<text text-anchor="middle" x="199.5" y="-134.3" font-family="Times,serif" font-size="14.00" fill="#000000">value = [0, 0, 1]</text>
<text text-anchor="middle" x="199.5" y="-119.3" font-family="Times,serif" font-size="14.00" fill="#000000">class = virginica</text>
</g>
<!-- 7&#45;&gt;8 -->
<g id="edge8" class="edge">
<title>7&#45;&gt;8</title>
<path fill="none" stroke="#000000" d="M298.3378,-222.8796C283.1687,-211.0038 266.6616,-198.0804 251.5591,-186.2568"/>
<polygon fill="#000000" stroke="#000000" points="253.3624,-183.2236 243.3308,-179.8149 249.0472,-188.7353 253.3624,-183.2236"/>
</g>
<!-- 9 -->
<g id="node10" class="node">
<title>9</title>
<polygon fill="#9cf2c0" stroke="#000000" points="431,-187 272,-187 272,-104 431,-104 431,-187"/>
<text text-anchor="middle" x="351.5" y="-171.8" font-family="Times,serif" font-size="14.00" fill="#000000">petal length (cm) &lt;= 5.45</text>
<text text-anchor="middle" x="351.5" y="-156.8" font-family="Times,serif" font-size="14.00" fill="#000000">gini = 0.444</text>
<text text-anchor="middle" x="351.5" y="-141.8" font-family="Times,serif" font-size="14.00" fill="#000000">samples = 3</text>
<text text-anchor="middle" x="351.5" y="-126.8" font-family="Times,serif" font-size="14.00" fill="#000000">value = [0, 2, 1]</text>
<text text-anchor="middle" x="351.5" y="-111.8" font-family="Times,serif" font-size="14.00" fill="#000000">class = versicolor</text>
</g>
<!-- 7&#45;&gt;9 -->
<g id="edge9" class="edge">
<title>7&#45;&gt;9</title>
<path fill="none" stroke="#000000" d="M351.5,-222.8796C351.5,-214.6838 351.5,-205.9891 351.5,-197.5013"/>
<polygon fill="#000000" stroke="#000000" points="355.0001,-197.298 351.5,-187.2981 348.0001,-197.2981 355.0001,-197.298"/>
</g>
<!-- 10 -->
<g id="node11" class="node">
<title>10</title>
<polygon fill="#39e581" stroke="#000000" points="291,-68 176,-68 176,0 291,0 291,-68"/>
<text text-anchor="middle" x="233.5" y="-52.8" font-family="Times,serif" font-size="14.00" fill="#000000">gini = 0.0</text>
<text text-anchor="middle" x="233.5" y="-37.8" font-family="Times,serif" font-size="14.00" fill="#000000">samples = 2</text>
<text text-anchor="middle" x="233.5" y="-22.8" font-family="Times,serif" font-size="14.00" fill="#000000">value = [0, 2, 0]</text>
<text text-anchor="middle" x="233.5" y="-7.8" font-family="Times,serif" font-size="14.00" fill="#000000">class = versicolor</text>
</g>
<!-- 9&#45;&gt;10 -->
<g id="edge10" class="edge">
<title>9&#45;&gt;10</title>
<path fill="none" stroke="#000000" d="M307.5612,-103.9815C297.6402,-94.607 287.1103,-84.6572 277.1992,-75.2921"/>
<polygon fill="#000000" stroke="#000000" points="279.4334,-72.5878 269.7611,-68.2637 274.6257,-77.6757 279.4334,-72.5878"/>
</g>
<!-- 11 -->
<g id="node12" class="node">
<title>11</title>
<polygon fill="#8139e5" stroke="#000000" points="417.5,-68 309.5,-68 309.5,0 417.5,0 417.5,-68"/>
<text text-anchor="middle" x="363.5" y="-52.8" font-family="Times,serif" font-size="14.00" fill="#000000">gini = 0.0</text>
<text text-anchor="middle" x="363.5" y="-37.8" font-family="Times,serif" font-size="14.00" fill="#000000">samples = 1</text>
<text text-anchor="middle" x="363.5" y="-22.8" font-family="Times,serif" font-size="14.00" fill="#000000">value = [0, 0, 1]</text>
<text text-anchor="middle" x="363.5" y="-7.8" font-family="Times,serif" font-size="14.00" fill="#000000">class = virginica</text>
</g>
<!-- 9&#45;&gt;11 -->
<g id="edge11" class="edge">
<title>9&#45;&gt;11</title>
<path fill="none" stroke="#000000" d="M355.9684,-103.9815C356.8685,-95.618 357.8179,-86.7965 358.7279,-78.3409"/>
<polygon fill="#000000" stroke="#000000" points="362.2222,-78.5808 359.8124,-68.2637 355.2624,-77.8317 362.2222,-78.5808"/>
</g>
<!-- 13 -->
<g id="node14" class="node">
<title>13</title>
<polygon fill="#c09cf2" stroke="#000000" points="610,-187 449,-187 449,-104 610,-104 610,-187"/>
<text text-anchor="middle" x="529.5" y="-171.8" font-family="Times,serif" font-size="14.00" fill="#000000">sepal length (cm) &lt;= 5.95</text>
<text text-anchor="middle" x="529.5" y="-156.8" font-family="Times,serif" font-size="14.00" fill="#000000">gini = 0.444</text>
<text text-anchor="middle" x="529.5" y="-141.8" font-family="Times,serif" font-size="14.00" fill="#000000">samples = 3</text>
<text text-anchor="middle" x="529.5" y="-126.8" font-family="Times,serif" font-size="14.00" fill="#000000">value = [0, 1, 2]</text>
<text text-anchor="middle" x="529.5" y="-111.8" font-family="Times,serif" font-size="14.00" fill="#000000">class = virginica</text>
</g>
<!-- 12&#45;&gt;13 -->
<g id="edge13" class="edge">
<title>12&#45;&gt;13</title>
<path fill="none" stroke="#000000" d="M529.5,-222.8796C529.5,-214.6838 529.5,-205.9891 529.5,-197.5013"/>
<polygon fill="#000000" stroke="#000000" points="533.0001,-197.298 529.5,-187.2981 526.0001,-197.2981 533.0001,-197.298"/>
</g>
<!-- 16 -->
<g id="node17" class="node">
<title>16</title>
<polygon fill="#8139e5" stroke="#000000" points="741,-179.5 628,-179.5 628,-111.5 741,-111.5 741,-179.5"/>
<text text-anchor="middle" x="684.5" y="-164.3" font-family="Times,serif" font-size="14.00" fill="#000000">gini = 0.0</text>
<text text-anchor="middle" x="684.5" y="-149.3" font-family="Times,serif" font-size="14.00" fill="#000000">samples = 34</text>
<text text-anchor="middle" x="684.5" y="-134.3" font-family="Times,serif" font-size="14.00" fill="#000000">value = [0, 0, 34]</text>
<text text-anchor="middle" x="684.5" y="-119.3" font-family="Times,serif" font-size="14.00" fill="#000000">class = virginica</text>
</g>
<!-- 12&#45;&gt;16 -->
<g id="edge16" class="edge">
<title>12&#45;&gt;16</title>
<path fill="none" stroke="#000000" d="M583.7115,-222.8796C599.3231,-210.8938 616.3247,-197.841 631.8408,-185.9287"/>
<polygon fill="#000000" stroke="#000000" points="634.0035,-188.6808 639.8041,-179.8149 629.7407,-183.1285 634.0035,-188.6808"/>
</g>
<!-- 14 -->
<g id="node15" class="node">
<title>14</title>
<polygon fill="#39e581" stroke="#000000" points="575,-68 460,-68 460,0 575,0 575,-68"/>
<text text-anchor="middle" x="517.5" y="-52.8" font-family="Times,serif" font-size="14.00" fill="#000000">gini = 0.0</text>
<text text-anchor="middle" x="517.5" y="-37.8" font-family="Times,serif" font-size="14.00" fill="#000000">samples = 1</text>
<text text-anchor="middle" x="517.5" y="-22.8" font-family="Times,serif" font-size="14.00" fill="#000000">value = [0, 1, 0]</text>
<text text-anchor="middle" x="517.5" y="-7.8" font-family="Times,serif" font-size="14.00" fill="#000000">class = versicolor</text>
</g>
<!-- 13&#45;&gt;14 -->
<g id="edge14" class="edge">
<title>13&#45;&gt;14</title>
<path fill="none" stroke="#000000" d="M525.0316,-103.9815C524.1315,-95.618 523.1821,-86.7965 522.2721,-78.3409"/>
<polygon fill="#000000" stroke="#000000" points="525.7376,-77.8317 521.1876,-68.2637 518.7778,-78.5808 525.7376,-77.8317"/>
</g>
<!-- 15 -->
<g id="node16" class="node">
<title>15</title>
<polygon fill="#8139e5" stroke="#000000" points="701.5,-68 593.5,-68 593.5,0 701.5,0 701.5,-68"/>
<text text-anchor="middle" x="647.5" y="-52.8" font-family="Times,serif" font-size="14.00" fill="#000000">gini = 0.0</text>
<text text-anchor="middle" x="647.5" y="-37.8" font-family="Times,serif" font-size="14.00" fill="#000000">samples = 2</text>
<text text-anchor="middle" x="647.5" y="-22.8" font-family="Times,serif" font-size="14.00" fill="#000000">value = [0, 0, 2]</text>
<text text-anchor="middle" x="647.5" y="-7.8" font-family="Times,serif" font-size="14.00" fill="#000000">class = virginica</text>
</g>
<!-- 13&#45;&gt;15 -->
<g id="edge15" class="edge">
<title>13&#45;&gt;15</title>
<path fill="none" stroke="#000000" d="M573.4388,-103.9815C583.3598,-94.607 593.8897,-84.6572 603.8008,-75.2921"/>
<polygon fill="#000000" stroke="#000000" points="606.3743,-77.6757 611.2389,-68.2637 601.5666,-72.5878 606.3743,-77.6757"/>
</g>
</g>
</svg>
