<?xml version="1.0" encoding="UTF-8" standalone="no"?>
<!DOCTYPE svg PUBLIC "-//W3C//DTD SVG 1.1//EN"
 "http://www.w3.org/Graphics/SVG/1.1/DTD/svg11.dtd">
<!-- Generated by graphviz version 2.40.1 (20161225.0304)
 -->
<!-- Title: Tree Pages: 1 -->
<svg width="340pt" height="314pt"
 viewBox="0.00 0.00 340.00 314.00" xmlns="http://www.w3.org/2000/svg" xmlns:xlink="http://www.w3.org/1999/xlink">
<g id="graph0" class="graph" transform="scale(1 1) rotate(0) translate(4 310)">
<title>Tree</title>
<polygon fill="#ffffff" stroke="transparent" points="-4,4 -4,-310 336,-310 336,4 -4,4"/>
<!-- 0 -->
<g id="node1" class="node">
<title>0</title>
<polygon fill="#fffdfd" stroke="#000000" points="207,-306 58,-306 58,-223 207,-223 207,-306"/>
<text text-anchor="middle" x="132.5" y="-290.8" font-family="Times,serif" font-size="14.00" fill="#000000">petal width (cm) &lt;= 0.8</text>
<text text-anchor="middle" x="132.5" y="-275.8" font-family="Times,serif" font-size="14.00" fill="#000000">gini = 0.667</text>
<text text-anchor="middle" x="132.5" y="-260.8" font-family="Times,serif" font-size="14.00" fill="#000000">samples = 120</text>
<text text-anchor="middle" x="132.5" y="-245.8" font-family="Times,serif" font-size="14.00" fill="#000000">value = [41, 40, 39]</text>
<text text-anchor="middle" x="132.5" y="-230.8" font-family="Times,serif" font-size="14.00" fill="#000000">class = setosa</text>
</g>
<!-- 1 -->
<g id="node2" class="node">
<title>1</title>
<polygon fill="#e58139" stroke="#000000" points="113,-179.5 0,-179.5 0,-111.5 113,-111.5 113,-179.5"/>
<text text-anchor="middle" x="56.5" y="-164.3" font-family="Times,serif" font-size="14.00" fill="#000000">gini = 0.0</text>
<text text-anchor="middle" x="56.5" y="-149.3" font-family="Times,serif" font-size="14.00" fill="#000000">samples = 41</text>
<text text-anchor="middle" x="56.5" y="-134.3" font-family="Times,serif" font-size="14.00" fill="#000000">value = [41, 0, 0]</text>
<text text-anchor="middle" x="56.5" y="-119.3" font-family="Times,serif" font-size="14.00" fill="#000000">class = setosa</text>
</g>
<!-- 0&#45;&gt;1 -->
<g id="edge1" class="edge">
<title>0&#45;&gt;1</title>
<path fill="none" stroke="#000000" d="M105.9189,-222.8796C98.826,-211.7735 91.1479,-199.7513 84.0063,-188.5691"/>
<polygon fill="#000000" stroke="#000000" points="86.7477,-186.3589 78.4154,-179.8149 80.8482,-190.1267 86.7477,-186.3589"/>
<text text-anchor="middle" x="73.0319" y="-200.5284" font-family="Times,serif" font-size="14.00" fill="#000000">True</text>
</g>
<!-- 2 -->
<g id="node3" class="node">
<title>2</title>
<polygon fill="#fafefc" stroke="#000000" points="287.5,-187 131.5,-187 131.5,-104 287.5,-104 287.5,-187"/>
<text text-anchor="middle" x="209.5" y="-171.8" font-family="Times,serif" font-size="14.00" fill="#000000">petal width (cm) &lt;= 1.65</text>
<text text-anchor="middle" x="209.5" y="-156.8" font-family="Times,serif" font-size="14.00" fill="#000000">gini = 0.5</text>
<text text-anchor="middle" x="209.5" y="-141.8" font-family="Times,serif" font-size="14.00" fill="#000000">samples = 79</text>
<text text-anchor="middle" x="209.5" y="-126.8" font-family="Times,serif" font-size="14.00" fill="#000000">value = [0, 40, 39]</text>
<text text-anchor="middle" x="209.5" y="-111.8" font-family="Times,serif" font-size="14.00" fill="#000000">class = versicolor</text>
</g>
<!-- 0&#45;&gt;2 -->
<g id="edge2" class="edge">
<title>0&#45;&gt;2</title>
<path fill="none" stroke="#000000" d="M159.4309,-222.8796C165.0837,-214.1434 171.1033,-204.8404 176.9366,-195.8253"/>
<polygon fill="#000000" stroke="#000000" points="179.9601,-197.5952 182.4542,-187.2981 174.0831,-193.7924 179.9601,-197.5952"/>
<text text-anchor="middle" x="187.6924" y="-208.0431" font-family="Times,serif" font-size="14.00" fill="#000000">False</text>
</g>
<!-- 3 -->
<g id="node4" class="node">
<title>3</title>
<polygon fill="#43e688" stroke="#000000" points="201,-68 86,-68 86,0 201,0 201,-68"/>
<text text-anchor="middle" x="143.5" y="-52.8" font-family="Times,serif" font-size="14.00" fill="#000000">gini = 0.095</text>
<text text-anchor="middle" x="143.5" y="-37.8" font-family="Times,serif" font-size="14.00" fill="#000000">samples = 40</text>
<text text-anchor="middle" x="143.5" y="-22.8" font-family="Times,serif" font-size="14.00" fill="#000000">value = [0, 38, 2]</text>
<text text-anchor="middle" x="143.5" y="-7.8" font-family="Times,serif" font-size="14.00" fill="#000000">class = versicolor</text>
</g>
<!-- 2&#45;&gt;3 -->
<g id="edge3" class="edge">
<title>2&#45;&gt;3</title>
<path fill="none" stroke="#000000" d="M184.924,-103.9815C179.7014,-95.1585 174.1771,-85.8258 168.9237,-76.9506"/>
<polygon fill="#000000" stroke="#000000" points="171.8874,-75.0863 163.7816,-68.2637 165.8636,-78.652 171.8874,-75.0863"/>
</g>
<!-- 4 -->
<g id="node5" class="node">
<title>4</title>
<polygon fill="#8844e6" stroke="#000000" points="332,-68 219,-68 219,0 332,0 332,-68"/>
<text text-anchor="middle" x="275.5" y="-52.8" font-family="Times,serif" font-size="14.00" fill="#000000">gini = 0.097</text>
<text text-anchor="middle" x="275.5" y="-37.8" font-family="Times,serif" font-size="14.00" fill="#000000">samples = 39</text>
<text text-anchor="middle" x="275.5" y="-22.8" font-family="Times,serif" font-size="14.00" fill="#000000">value = [0, 2, 37]</text>
<text text-anchor="middle" x="275.5" y="-7.8" font-family="Times,serif" font-size="14.00" fill="#000000">class = virginica</text>
</g>
<!-- 2&#45;&gt;4 -->
<g id="edge4" class="edge">
<title>2&#45;&gt;4</title>
<path fill="none" stroke="#000000" d="M234.076,-103.9815C239.2986,-95.1585 244.8229,-85.8258 250.0763,-76.9506"/>
<polygon fill="#000000" stroke="#000000" points="253.1364,-78.652 255.2184,-68.2637 247.1126,-75.0863 253.1364,-78.652"/>
</g>
</g>
</svg>
